<svg width="48" height="48" viewBox="0 0 48 48" fill="none" xmlns="http://www.w3.org/2000/svg">
<path d="M26 42H8C6.93913 42 5.92172 41.5786 5.17157 40.8284C4.42143 40.0783 4 39.0609 4 38V10C4 8.93913 4.42143 7.92172 5.17157 7.17157C5.92172 6.42143 6.93913 6 8 6H40C41.0609 6 42.0783 6.42143 42.8284 7.17157C43.5786 7.92172 44 8.93913 44 10V24" stroke="#7C7B5D" stroke-width="2.5" stroke-linecap="round"/>
<path d="M4 14H44M10 10.02L10.02 9.99805M16 10.02L16.02 9.99805M22 10.02L22.02 9.99805M37.984 28.25L43.096 29.548C43.628 29.684 44.002 30.168 43.986 30.716C43.642 42.232 37 44 37 44C37 44 30.358 42.232 30.014 30.716C30.0078 30.4493 30.0926 30.1883 30.2543 29.9761C30.416 29.7638 30.6451 29.6129 30.904 29.548L36.016 28.25C36.662 28.086 37.338 28.086 37.984 28.25Z" stroke="#7C7B5D" stroke-width="2.5" stroke-linecap="round" stroke-linejoin="round"/>
</svg>
