<svg width="24" height="25" viewBox="0 0 24 25" fill="none" xmlns="http://www.w3.org/2000/svg">
<path d="M16 18.5444C16.5304 18.5444 17.0391 18.7551 17.4142 19.1302C17.7893 19.5053 18 20.014 18 20.5444C18 21.0749 17.7893 21.5836 17.4142 21.9586C17.0391 22.3337 16.5304 22.5444 16 22.5444C15.4696 22.5444 14.9609 22.3337 14.5858 21.9586C14.2107 21.5836 14 21.0749 14 20.5444C14 20.014 14.2107 19.5053 14.5858 19.1302C14.9609 18.7551 15.4696 18.5444 16 18.5444ZM16 19.5444C15.7348 19.5444 15.4804 19.6498 15.2929 19.8373C15.1054 20.0249 15 20.2792 15 20.5444C15 20.8097 15.1054 21.064 15.2929 21.2515C15.4804 21.4391 15.7348 21.5444 16 21.5444C16.2652 21.5444 16.5196 21.4391 16.7071 21.2515C16.8946 21.064 17 20.8097 17 20.5444C17 20.2792 16.8946 20.0249 16.7071 19.8373C16.5196 19.6498 16.2652 19.5444 16 19.5444ZM7 18.5444C7.53043 18.5444 8.03914 18.7551 8.41421 19.1302C8.78929 19.5053 9 20.014 9 20.5444C9 21.0749 8.78929 21.5836 8.41421 21.9586C8.03914 22.3337 7.53043 22.5444 7 22.5444C6.46957 22.5444 5.96086 22.3337 5.58579 21.9586C5.21071 21.5836 5 21.0749 5 20.5444C5 20.014 5.21071 19.5053 5.58579 19.1302C5.96086 18.7551 6.46957 18.5444 7 18.5444ZM7 19.5444C6.73478 19.5444 6.48043 19.6498 6.29289 19.8373C6.10536 20.0249 6 20.2792 6 20.5444C6 20.8097 6.10536 21.064 6.29289 21.2515C6.48043 21.4391 6.73478 21.5444 7 21.5444C7.26522 21.5444 7.51957 21.4391 7.70711 21.2515C7.89464 21.064 8 20.8097 8 20.5444C8 20.2792 7.89464 20.0249 7.70711 19.8373C7.51957 19.6498 7.26522 19.5444 7 19.5444ZM18 6.54443H4.27L6.82 12.5444H15C15.33 12.5444 15.62 12.3844 15.8 12.1444L18.8 8.14443C18.93 7.97443 19 7.76443 19 7.54443C19 7.27922 18.8946 7.02486 18.7071 6.83733C18.5196 6.64979 18.2652 6.54443 18 6.54443ZM15 13.5444H6.87L6.1 15.1044L6 15.5444C6 15.8097 6.10536 16.064 6.29289 16.2515C6.48043 16.4391 6.73478 16.5444 7 16.5444H18V17.5444H7C6.46957 17.5444 5.96086 17.3337 5.58579 16.9586C5.21071 16.5836 5 16.0749 5 15.5444C4.9997 15.2051 5.08573 14.8713 5.25 14.5744L5.97 13.1044L2.34 4.54443H1V3.54443H3L3.85 5.54443H18C18.5304 5.54443 19.0391 5.75515 19.4142 6.13022C19.7893 6.50529 20 7.014 20 7.54443C20 8.04443 19.83 8.46443 19.55 8.80443L16.64 12.6944C16.28 13.2044 15.68 13.5444 15 13.5444Z" fill="currentColor"/>
</svg>
