<svg width="78" height="78" viewBox="0 0 78 78" fill="none" xmlns="http://www.w3.org/2000/svg">
<g filter="url(#filter0_d_78_117)">
<circle cx="35" cy="35" r="34.5" fill="white" stroke="#7C7B5D"/>
<path d="M33 48V44H49V29.8C49 27.8667 48.6333 26.05 47.9 24.35C47.1667 22.65 46.1667 21.1667 44.9 19.9C43.6333 18.6333 42.15 17.6333 40.45 16.9C38.75 16.1667 36.9333 15.8 35 15.8C33.0667 15.8 31.25 16.1667 29.55 16.9C27.85 17.6333 26.3667 18.6333 25.1 19.9C23.8333 21.1667 22.8333 22.65 22.1 24.35C21.3667 26.05 21 27.8667 21 29.8V42H19C17.9 42 16.9587 41.6087 16.176 40.826C15.392 40.042 15 39.1 15 38V34C15 33.2333 15.1833 32.558 15.55 31.974C15.9167 31.3913 16.4 30.9167 17 30.55L17.15 27.9C17.45 25.4667 18.142 23.2667 19.226 21.3C20.3087 19.3333 21.6587 17.6667 23.276 16.3C24.892 14.9333 26.7087 13.8747 28.726 13.124C30.742 12.3747 32.8333 12 35 12C37.2 12 39.3087 12.3747 41.326 13.124C43.342 13.8747 45.15 14.9413 46.75 16.324C48.35 17.708 49.692 19.3747 50.776 21.324C51.8587 23.2747 52.55 25.45 52.85 27.85L53 30.45C53.6 30.75 54.0833 31.1913 54.45 31.774C54.8167 32.358 55 33 55 33.7V38.3C55 39.0333 54.8167 39.6833 54.45 40.25C54.0833 40.8167 53.6 41.25 53 41.55V44C53 45.1 52.6087 46.042 51.826 46.826C51.042 47.6087 50.1 48 49 48H33ZM29 34C28.4333 34 27.9587 33.808 27.576 33.424C27.192 33.0413 27 32.5667 27 32C27 31.4333 27.192 30.958 27.576 30.574C27.9587 30.1913 28.4333 30 29 30C29.5667 30 30.042 30.1913 30.426 30.574C30.8087 30.958 31 31.4333 31 32C31 32.5667 30.8087 33.0413 30.426 33.424C30.042 33.808 29.5667 34 29 34ZM41 34C40.4333 34 39.9587 33.808 39.576 33.424C39.192 33.0413 39 32.5667 39 32C39 31.4333 39.192 30.958 39.576 30.574C39.9587 30.1913 40.4333 30 41 30C41.5667 30 42.042 30.1913 42.426 30.574C42.8087 30.958 43 31.4333 43 32C43 32.5667 42.8087 33.0413 42.426 33.424C42.042 33.808 41.5667 34 41 34ZM23.05 30.9C22.9167 28.9333 23.192 27.15 23.876 25.55C24.5587 23.95 25.4747 22.5913 26.624 21.474C27.7747 20.358 29.1 19.5 30.6 18.9C32.1 18.3 33.6 18 35.1 18C38.1333 18 40.7587 18.9587 42.976 20.876C45.192 22.792 46.5333 25.1833 47 28.05C43.8667 28.0167 41.0333 27.1747 38.5 25.524C35.9667 23.8747 34.05 21.7333 32.75 19.1C32.2167 21.8 31.092 24.1913 29.376 26.274C27.6587 28.358 25.55 29.9 23.05 30.9Z" fill="#7C7B5D"/>
</g>
<defs>
<filter id="filter0_d_78_117" x="0" y="0" width="78" height="78" filterUnits="userSpaceOnUse" color-interpolation-filters="sRGB">
<feFlood flood-opacity="0" result="BackgroundImageFix"/>
<feColorMatrix in="SourceAlpha" type="matrix" values="0 0 0 0 0 0 0 0 0 0 0 0 0 0 0 0 0 0 127 0" result="hardAlpha"/>
<feOffset dx="4" dy="4"/>
<feGaussianBlur stdDeviation="2"/>
<feComposite in2="hardAlpha" operator="out"/>
<feColorMatrix type="matrix" values="0 0 0 0 0.87079 0 0 0 0 0.863533 0 0 0 0 0.863533 0 0 0 1 0"/>
<feBlend mode="normal" in2="BackgroundImageFix" result="effect1_dropShadow_78_117"/>
<feBlend mode="normal" in="SourceGraphic" in2="effect1_dropShadow_78_117" result="shape"/>
</filter>
</defs>
</svg>
