<svg width="78" height="78" viewBox="0 0 78 78" fill="none" xmlns="http://www.w3.org/2000/svg">
<g filter="url(#filter0_d_78_100)">
<circle cx="35" cy="35" r="34.5" fill="white" stroke="#7C7B5D"/>
<path d="M15.9009 23.4002C15.9009 21.0818 17.7825 19.2002 20.1009 19.2002H40.4025C42.7209 19.2002 44.6025 21.0818 44.6025 23.4002V26.4002H46.7169C47.3858 26.4002 48.0415 26.5866 48.6104 26.9385C49.1793 27.2903 49.6389 27.7937 49.9377 28.3922L53.8209 36.1562C54.071 36.6553 54.2017 37.2059 54.2025 37.7642V46.8002C54.2025 47.755 53.8232 48.6707 53.1481 49.3458C52.4729 50.0209 51.5573 50.4002 50.6025 50.4002H46.8825C46.6071 51.7565 45.8712 52.976 44.7996 53.8518C43.728 54.7277 42.3865 55.2062 41.0025 55.2062C39.6185 55.2062 38.277 54.7277 37.2054 53.8518C36.1338 52.976 35.3979 51.7565 35.1225 50.4002H32.4825C32.2071 51.7565 31.4712 52.976 30.3996 53.8518C29.328 54.7277 27.9865 55.2062 26.6025 55.2062C25.2185 55.2062 23.877 54.7277 22.8054 53.8518C21.7338 52.976 20.9979 51.7565 20.7225 50.4002H20.1009C18.987 50.4002 17.9187 49.9577 17.131 49.17C16.3434 48.3824 15.9009 47.3141 15.9009 46.2002V23.4002ZM35.1225 48.0002C35.4405 46.4411 36.3648 45.0721 37.6921 44.1945C39.0194 43.3168 40.6409 43.0023 42.2001 43.3202V23.4002C42.2001 22.9228 42.0104 22.465 41.6729 22.1274C41.3353 21.7898 40.8775 21.6002 40.4001 21.6002H20.1009C19.6235 21.6002 19.1657 21.7898 18.8281 22.1274C18.4905 22.465 18.3009 22.9228 18.3009 23.4002V46.2002C18.3009 47.1938 19.1073 48.0002 20.1009 48.0002H20.7225C20.9979 46.6439 21.7338 45.4244 22.8054 44.5485C23.877 43.6727 25.2185 43.1942 26.6025 43.1942C27.9865 43.1942 29.328 43.6727 30.3996 44.5485C31.4712 45.4244 32.2071 46.6439 32.4825 48.0002H35.1225ZM44.6001 44.4002C45.7521 45.2642 46.5825 46.5362 46.8801 48.0002H50.6001C50.9183 48.0002 51.2236 47.8738 51.4486 47.6487C51.6736 47.4237 51.8001 47.1185 51.8001 46.8002V38.4002H44.6001V44.4002ZM44.6001 36.0002H51.0561L47.7921 29.4626C47.6923 29.2635 47.5391 29.0961 47.3497 28.9791C47.1602 28.8622 46.9419 28.8002 46.7193 28.8002H44.6001V36.0002ZM26.6001 45.6002C25.6453 45.6002 24.7296 45.9795 24.0545 46.6546C23.3794 47.3297 23.0001 48.2454 23.0001 49.2002C23.0001 50.155 23.3794 51.0706 24.0545 51.7458C24.7296 52.4209 25.6453 52.8002 26.6001 52.8002C27.5549 52.8002 28.4705 52.4209 29.1457 51.7458C29.8208 51.0706 30.2001 50.155 30.2001 49.2002C30.2001 48.2454 29.8208 47.3297 29.1457 46.6546C28.4705 45.9795 27.5549 45.6002 26.6001 45.6002ZM37.4001 49.2002C37.4001 49.673 37.4932 50.1411 37.6741 50.5779C37.855 51.0146 38.1202 51.4115 38.4545 51.7458C38.7888 52.0801 39.1856 52.3452 39.6224 52.5262C40.0592 52.7071 40.5273 52.8002 41.0001 52.8002C41.4728 52.8002 41.941 52.7071 42.3777 52.5262C42.8145 52.3452 43.2114 52.0801 43.5457 51.7458C43.88 51.4115 44.1451 51.0146 44.326 50.5779C44.507 50.1411 44.6001 49.673 44.6001 49.2002C44.6001 48.2454 44.2208 47.3297 43.5457 46.6546C42.8705 45.9795 41.9549 45.6002 41.0001 45.6002C40.0453 45.6002 39.1296 45.9795 38.4545 46.6546C37.7794 47.3297 37.4001 48.2454 37.4001 49.2002Z" fill="#7C7B5D"/>
</g>
<defs>
<filter id="filter0_d_78_100" x="0" y="0" width="78" height="78" filterUnits="userSpaceOnUse" color-interpolation-filters="sRGB">
<feFlood flood-opacity="0" result="BackgroundImageFix"/>
<feColorMatrix in="SourceAlpha" type="matrix" values="0 0 0 0 0 0 0 0 0 0 0 0 0 0 0 0 0 0 127 0" result="hardAlpha"/>
<feOffset dx="4" dy="4"/>
<feGaussianBlur stdDeviation="2"/>
<feComposite in2="hardAlpha" operator="out"/>
<feColorMatrix type="matrix" values="0 0 0 0 0.87079 0 0 0 0 0.863533 0 0 0 0 0.863533 0 0 0 1 0"/>
<feBlend mode="normal" in2="BackgroundImageFix" result="effect1_dropShadow_78_100"/>
<feBlend mode="normal" in="SourceGraphic" in2="effect1_dropShadow_78_100" result="shape"/>
</filter>
</defs>
</svg>
