<svg width="24" height="25" viewBox="0 0 24 25" fill="none" xmlns="http://www.w3.org/2000/svg">
<path d="M12.1 19.0944L12 19.1944L11.89 19.0944C7.14 14.7844 4 11.9344 4 9.04443C4 7.04443 5.5 5.54443 7.5 5.54443C9.04 5.54443 10.54 6.54443 11.07 7.90443H12.93C13.46 6.54443 14.96 5.54443 16.5 5.54443C18.5 5.54443 20 7.04443 20 9.04443C20 11.9344 16.86 14.7844 12.1 19.0944ZM16.5 3.54443C14.76 3.54443 13.09 4.35443 12 5.62443C10.91 4.35443 9.24 3.54443 7.5 3.54443C4.42 3.54443 2 5.95443 2 9.04443C2 12.8144 5.4 15.9044 10.55 20.5744L12 21.8944L13.45 20.5744C18.6 15.9044 22 12.8144 22 9.04443C22 5.95443 19.58 3.54443 16.5 3.54443Z" fill="#282828"/>
</svg>
