<svg width="24" height="25" viewBox="0 0 24 25" fill="none" xmlns="http://www.w3.org/2000/svg">
<path d="M21.0002 21.5446L16.6572 17.2016M16.6572 17.2016C17.4001 16.4588 17.9894 15.5768 18.3914 14.6062C18.7935 13.6356 19.0004 12.5952 19.0004 11.5446C19.0004 10.494 18.7935 9.45372 18.3914 8.48309C17.9894 7.51246 17.4001 6.63053 16.6572 5.88764C15.9143 5.14475 15.0324 4.55546 14.0618 4.15341C13.0911 3.75137 12.0508 3.54443 11.0002 3.54443C9.9496 3.54443 8.90929 3.75137 7.93866 4.15341C6.96803 4.55546 6.08609 5.14475 5.34321 5.88764C3.84288 7.38797 3 9.42285 3 11.5446C3 13.6664 3.84288 15.7013 5.34321 17.2016C6.84354 18.702 8.87842 19.5448 11.0002 19.5448C13.122 19.5448 15.1569 18.702 16.6572 17.2016Z" stroke="#282828" stroke-linecap="round" stroke-linejoin="round"/>
</svg>
